<?xml version="1.0" standalone="no"?>
<!DOCTYPE svg PUBLIC "-//W3C//DTD SVG 20010904//EN" "http://www.w3.org/TR/2001/REC-SVG-20010904/DTD/svg10.dtd">
<svg version="1.0" xmlns="http://www.w3.org/2000/svg" width="800.000000pt" height="800.000000pt"
    viewBox="0 0 800.000000 800.000000" preserveAspectRatio="xMidYMid meet">

    <rect width="800" height="800" fill='#164e63' rx="45" />

    <g transform="translate(0.000000,800.000000) scale(0.100000,-0.100000)" fill="#fff" stroke="none">
        <path d="M3775 6584 c-420 -44 -845 -198 -1165 -422 -693 -486 -1086 -1268
-1057 -2102 7 -199 25 -331 68 -508 79 -322 217 -616 412 -877 397 -529 978
-875 1613 -960 71 -10 135 -19 142 -21 9 -3 12 -101 12 -449 l0 -445 200 0
200 0 0 450 0 450 34 0 c19 0 100 11 179 25 892 153 1619 778 1900 1632 97
296 134 546 124 853 -12 375 -83 668 -242 998 -121 250 -255 440 -455 646
-271 278 -567 468 -935 599 -260 92 -467 128 -770 132 -121 2 -238 1 -260 -1z
m604 -469 c627 -125 1145 -522 1421 -1090 140 -288 202 -566 202 -895 0 -318
-64 -592 -203 -877 -233 -477 -642 -840 -1141 -1011 -120 -42 -301 -86 -400
-97 l-58 -7 0 525 0 526 23 24 c12 14 157 134 322 267 165 133 312 256 327
274 105 122 26 305 -140 324 -76 8 -112 -12 -325 -188 l-202 -167 -5 531 c-6
589 -4 572 -73 633 -35 31 -90 53 -132 53 -70 0 -142 -46 -175 -111 -19 -35
-20 -60 -20 -333 0 -162 -4 -297 -9 -300 -5 -3 -48 41 -95 99 -133 160 -188
217 -223 232 -68 28 -167 10 -222 -40 -60 -56 -78 -163 -38 -235 12 -23 144
-185 292 -361 149 -176 275 -335 282 -353 9 -24 12 -213 12 -715 l1 -683 -27
0 c-48 0 -204 29 -300 55 -326 88 -606 246 -852 480 -573 548 -775 1354 -525
2104 228 687 802 1193 1514 1336 140 28 215 34 430 30 174 -2 225 -7 339 -30z" />
    </g>
</svg>
